<svg width="35" height="35" viewBox="0 0 35 35" fill="none" xmlns="http://www.w3.org/2000/svg">
<path d="M34.161 21.5359C31.845 30.8256 22.4355 36.4787 13.1446 34.1626C3.85814 31.8466 -1.79548 22.437 0.521131 13.1478C2.83612 3.85701 12.2451 -1.79715 21.5332 0.518919C30.8235 2.83499 36.4766 12.2456 34.1605 21.5359H34.161Z" fill="#262626"/>
<path fill-rule="evenodd" clip-rule="evenodd" d="M22.5635 15.3262C22.7973 13.7609 21.6055 12.9194 19.9759 12.3581L20.5045 10.2377L19.2134 9.91603L18.6988 11.9806C18.3598 11.896 18.0113 11.8162 17.665 11.7372L18.1834 9.65907L16.8934 9.3374L16.3644 11.4571C16.0836 11.3931 15.8078 11.3299 15.5402 11.2633L15.5417 11.2567L13.7617 10.8123L13.4183 12.1908C13.4183 12.1908 14.376 12.4103 14.3558 12.4239C14.8785 12.5544 14.9734 12.9003 14.9572 13.1746L14.355 15.5902C14.3911 15.5994 14.4377 15.6126 14.4892 15.6332L14.3532 15.5994L13.5088 18.9833C13.4448 19.1421 13.2827 19.3803 12.9173 19.2899C12.9302 19.3086 11.9791 19.0557 11.9791 19.0557L11.3384 20.5335L13.0184 20.9522C13.208 20.9997 13.3954 21.0486 13.5807 21.097C13.7007 21.1283 13.8198 21.1593 13.9382 21.1897L13.404 23.3347L14.6932 23.6564L15.2226 21.5345C15.5744 21.6301 15.9163 21.7183 16.2508 21.8014L15.7237 23.9134L17.0144 24.235L17.5485 22.0944C19.7494 22.5109 21.4048 22.3429 22.1007 20.3526C22.662 18.7498 22.0731 17.8253 20.9151 17.222C21.7584 17.0268 22.3937 16.4721 22.5631 15.3262H22.5635ZM19.6141 19.4615C19.2476 20.9326 16.9446 20.3239 15.8917 20.0456C15.7974 20.0207 15.7132 19.9985 15.6412 19.9806L16.35 17.1393C16.4379 17.1612 16.5454 17.1853 16.6671 17.2126C17.7563 17.457 19.9884 17.9579 19.6144 19.4615H19.6141ZM16.8859 15.8942C17.7644 16.1286 19.6793 16.6395 20.0129 15.3031C20.3539 13.936 18.4919 13.5239 17.5825 13.3227C17.4803 13.3001 17.3901 13.2801 17.3164 13.2617L16.6738 15.8387C16.7346 15.8539 16.806 15.8729 16.8859 15.8942Z" fill="#CAFF33"/>
</svg>
